<svg width="30" height="34" viewBox="0 0 30 34" fill="none" xmlns="http://www.w3.org/2000/svg">
<g clip-path="url(#clip0_1_12)">
<path d="M0 15.6098V33.859C0 33.9018 0.0433944 33.9732 0.115718 33.9732C0.188042 33.9732 19.7011 33.9446 19.7011 33.9446L29.7992 23.9798C29.9873 23.7943 30.0579 23.753 29.8698 23.753H10.0096V15.6027C10.0096 15.4172 9.89393 15.4457 9.67695 15.4457H0.245902C0.0867888 15.4457 5.00057e-08 15.4315 0 15.6098Z" fill="#919191"/>
<path d="M0.0433944 33.9446C0.072324 33.9589 10.0096 23.753 10.0096 23.753V15.6027C10.0096 15.4172 9.89392 15.4457 9.67695 15.4457H0.245902C0.0867888 15.4457 4.91436e-08 15.4315 0 15.6098V33.859C0 33.8733 0.0144648 33.9303 0.0433944 33.9446Z" fill="white"/>
<path d="M29.9803 18.3632V0.11419C29.9803 0.0713686 29.9369 6.23762e-09 29.8646 0C29.7923 -6.24047e-09 10.2793 0.0285457 10.2793 0.0285457L0.181267 9.99317C-0.00677493 10.1787 -0.0774957 10.22 0.110547 10.22H19.9707V18.3703C19.9707 18.5558 20.0864 18.5273 20.3034 18.5273H29.7344C29.8935 18.5273 29.9803 18.5416 29.9803 18.3632Z" fill="white"/>
<path d="M29.9369 0.0285489C29.908 0.0142752 19.9707 10.22 19.9707 10.22V18.3703C19.9707 18.5558 20.0864 18.5273 20.3034 18.5273H29.7344C29.8935 18.5273 29.9803 18.5416 29.9803 18.3632V0.114191C29.9803 0.0999175 29.9659 0.0428226 29.9369 0.0285489Z" fill="#919191"/>
</g>
<defs>
<clipPath id="clip0_1_12">
<rect width="30" height="34" fill="white"/>
</clipPath>
</defs>
</svg>
